<?xml version="1.0" encoding="UTF-8"?>
<svg id="Layer_1" xmlns="http://www.w3.org/2000/svg" baseProfile="tiny" version="1.2" viewBox="0 0 500 100">
  <!-- Generator: Adobe Illustrator 30.1.0, SVG Export Plug-In . SVG Version: 2.1.1 Build 136)  -->
  <g>
    <path d="M62.97,26.79v-10.09c-6.4,0-11.41,1.69-15.01,5.07-3.62,3.38-5.42,10.3-5.42,20.74v20.37h20.43v-21.94h-10.03v-1.18c0-7.91,3.35-12.23,10.03-12.97ZM31.66,26.79v-10.09c-6.39,0-11.4,1.69-15.01,5.07-3.61,3.38-5.41,10.3-5.41,20.74v20.37h20.42v-21.94h-10.02v-1.18c0-7.91,3.34-12.23,10.02-12.97Z" fill="#27aae1" stroke="#fff" stroke-miterlimit="10" stroke-width="5"/>
    <path d="M471.67,16.7v21.94h10.02v1.18c0,7.91-3.34,12.22-10.02,12.91v9.89c6.36,0,11.35-1.66,14.97-5.01,3.63-3.35,5.45-10.21,5.45-20.61v-20.31h-20.42ZM440.74,16.7v21.94h10.03v1.18c0,7.91-3.35,12.22-10.03,12.91v9.89c4.4,0,8.07-.72,11.01-2.16,2.94-1.44,5.24-3.78,6.91-7.01,1.66-3.23,2.5-8.71,2.5-16.44v-20.31h-20.42Z" fill="#27aae1" stroke="#fff" stroke-miterlimit="10" stroke-width="5"/>
  </g>
  <g>
    <polygon points="399.22 73 378.63 84.61 382.56 60.04 365.91 42.63 388.93 39.05 399.22 16.7 409.51 39.05 432.53 42.63 415.87 60.04 419.79 84.61 399.22 73" fill="#fff"/>
    <polygon points="326.18 73 305.59 84.61 309.51 60.04 292.87 42.63 315.87 39.05 326.18 16.7 336.47 39.05 359.47 42.63 342.82 60.04 346.75 84.61 326.18 73" fill="#fff"/>
    <polygon points="253.12 73 232.55 84.61 236.47 60.04 219.83 42.63 242.84 39.05 253.12 16.7 263.41 39.05 286.43 42.63 269.78 60.04 273.69 84.61 253.12 73" fill="#fff"/>
    <polygon points="180.08 73 159.49 84.61 163.43 60.04 146.77 42.63 169.8 39.05 180.08 16.7 190.37 39.05 213.37 42.63 196.72 60.04 200.66 84.61 180.08 73" fill="#fff"/>
    <polygon points="107.03 73 86.45 84.61 90.37 60.04 73.73 42.63 96.74 39.05 107.03 16.7 117.31 39.05 140.33 42.63 123.68 60.04 127.6 84.61 107.03 73" fill="#fff"/>
  </g>
</svg>