<?xml version="1.0" encoding="UTF-8"?>
<svg id="Layer_1" xmlns="http://www.w3.org/2000/svg" width="512" height="512" baseProfile="tiny-ps" version="1.2" viewBox="0 0 512 512">
  <rect width="100%" height="100%" fill="#ffffff"/>
  <!-- Generator: Adobe Illustrator 30.1.0, SVG Export Plug-In . SVG Version: 2.1.1 Build 136)  -->
  <g>
    <g>
      <path d="M484.65,200.54h-73.47v-19.31l-4.72-8.49c-.25-.15-2.58-1.49-21.69-12.56-1.89-1.04-3.92-2.23-6.11-3.52-7.89-4.52-16.48-9.53-21.74-12.56.05-4.22.15-10.33.2-15.93v-.89l.2-14.05.05-4.96c.05-2.83.1-8.04-5.46-10.82l-4.47-1.04c-2.98,0-3.72.5-9.38,4.22l-8.54,5.71-12.41,8.29-2.63,4.96-18.37-10.62-15.74-9.08c-9.13-5.31-16.03-9.28-16.33-9.43l-9.73-.05-69.25,38.87-50.48,28.39-26.66,14.94-5.01,8.64v19.31H33.32l-9.93,9.93v112.68l9.93,9.93h69.6v21.84l7.84,9.68,148.47,31.47,4.22-.05,140.04-31.42,7.69-9.68v-21.84h73.47l9.93-9.93v-112.68l-9.93-9.93ZM484.65,323.15h-83.35v31.77l-140.04,31.47-148.47-31.47v-31.77H33.32v-112.68h79.47v-29.24l36.49-20.5,50.48-28.34,59.42-33.36c.4.25,16.23,9.38,31.97,18.47,13.6,7.89,27.15,15.74,30.58,17.72.55.3.84.45.84.45v-.65c0-1.09,0-3.38.05-5.71v-6.45s6.21-4.12,12.41-8.29c6.21-4.12,12.41-8.29,12.41-8.29l-.25,23.23-.2,20.3s11.27,6.5,23.53,13.6c14.54,8.44,30.53,17.67,30.78,17.82v29.24h83.35v112.68Z" fill="#132146"/>
      <path d="M401.3,210.47v-29.24c-.25-.15-16.23-9.38-30.78-17.82-12.26-7.1-23.48-13.55-23.53-13.6l.2-20.3.25-23.23s-6.21,4.17-12.41,8.29c-6.21,4.17-12.41,8.29-12.41,8.29v6.45c-.05,2.33-.05,4.62-.05,5.71v.65s-.3-.15-.84-.45c-3.43-1.99-16.98-9.83-30.58-17.72-15.74-9.08-31.57-18.22-31.97-18.47l-59.42,33.36-50.48,28.34-36.49,20.5v29.24H33.32v112.68h79.47v31.77l148.47,31.47,140.04-31.47v-31.77h83.35v-112.68h-83.35ZM477.01,315.51h-83.35v33.26l-132.44,29.78-140.78-29.83v-33.21H40.96v-97.39h79.47v-32.42l40.16-22.54,50.48-28.34,48.05-27c5.61,3.28,16.88,9.78,28.2,16.33,9.08,5.26,17.57,10.18,23.43,13.55,3.38,1.94,5.86,3.38,7.1,4.07l7.5,7.5,4.72,4.77.05-6.55.1-11.72v-2.48l.05-3.92v-2.38c2.38-1.59,5.71-3.82,9.03-6.06.1-.05.25-.15.35-.25l-.1,10.52-.2,18.52-.05,3.23,2.28,2.28c.65.65.74.74,17.92,10.67,3.18,1.84,6.95,4.02,11.42,6.6,8.44,4.86,17.72,10.23,22.74,13.11v32.51h83.35v97.39ZM401.3,210.47v-29.24c-.25-.15-16.23-9.38-30.78-17.82-12.26-7.1-23.48-13.55-23.53-13.6l.2-20.3.25-23.23s-6.21,4.17-12.41,8.29c-6.21,4.17-12.41,8.29-12.41,8.29v6.45c-.05,2.33-.05,4.62-.05,5.71v.65s-.3-.15-.84-.45c-3.43-1.99-16.98-9.83-30.58-17.72-15.74-9.08-31.57-18.22-31.97-18.47l-59.42,33.36-50.48,28.34-36.49,20.5v29.24H33.32v112.68h79.47v31.77l148.47,31.47,140.04-31.47v-31.77h83.35v-112.68h-83.35ZM477.01,315.51h-83.35v33.26l-132.44,29.78-140.78-29.83v-33.21H40.96v-97.39h79.47v-32.42l40.16-22.54,50.48-28.34,48.05-27c5.61,3.28,16.88,9.78,28.2,16.33,9.08,5.26,17.57,10.18,23.43,13.55,3.38,1.94,5.86,3.38,7.1,4.07l7.5,7.5,4.72,4.77.05-6.55.1-11.72v-2.48l.05-3.92v-2.38c2.38-1.59,5.71-3.82,9.03-6.06.1-.05.25-.15.35-.25l-.1,10.52-.2,18.52-.05,3.23,2.28,2.28c.65.65.74.74,17.92,10.67,3.18,1.84,6.95,4.02,11.42,6.6,8.44,4.86,17.72,10.23,22.74,13.11v32.51h83.35v97.39ZM401.3,210.47v-29.24c-.25-.15-16.23-9.38-30.78-17.82-12.26-7.1-23.48-13.55-23.53-13.6l.2-20.3.25-23.23s-6.21,4.17-12.41,8.29c-6.21,4.17-12.41,8.29-12.41,8.29v6.45c-.05,2.33-.05,4.62-.05,5.71v.65s-.3-.15-.84-.45c-3.43-1.99-16.98-9.83-30.58-17.72-15.74-9.08-31.57-18.22-31.97-18.47l-59.42,33.36-50.48,28.34-36.49,20.5v29.24H33.32v112.68h79.47v31.77l148.47,31.47,140.04-31.47v-31.77h83.35v-112.68h-83.35ZM477.01,315.51h-83.35v33.26l-132.44,29.78-140.78-29.83v-33.21H40.96v-97.39h79.47v-32.42l40.16-22.54,50.48-28.34,48.05-27c5.61,3.28,16.88,9.78,28.2,16.33,9.08,5.26,17.57,10.18,23.43,13.55,3.38,1.94,5.86,3.38,7.1,4.07l7.5,7.5,4.72,4.77.05-6.55.1-11.72v-2.48l.05-3.92v-2.38c2.38-1.59,5.71-3.82,9.03-6.06.1-.05.25-.15.35-.25l-.1,10.52-.2,18.52-.05,3.23,2.28,2.28c.65.65.74.74,17.92,10.67,3.18,1.84,6.95,4.02,11.42,6.6,8.44,4.86,17.72,10.23,22.74,13.11v32.51h83.35v97.39ZM401.3,210.47v-29.24c-.25-.15-16.23-9.38-30.78-17.82-12.26-7.1-23.48-13.55-23.53-13.6l.2-20.3.25-23.23s-6.21,4.17-12.41,8.29c-6.21,4.17-12.41,8.29-12.41,8.29v6.45c-.05,2.33-.05,4.62-.05,5.71v.65s-.3-.15-.84-.45c-3.43-1.99-16.98-9.83-30.58-17.72-15.74-9.08-31.57-18.22-31.97-18.47l-59.42,33.36-50.48,28.34-36.49,20.5v29.24H33.32v112.68h79.47v31.77l148.47,31.47,140.04-31.47v-31.77h83.35v-112.68h-83.35ZM477.01,315.51h-83.35v33.26l-132.44,29.78-140.78-29.83v-33.21H40.96v-97.39h79.47v-32.42l40.16-22.54,50.48-28.34,48.05-27c5.61,3.28,16.88,9.78,28.2,16.33,9.08,5.26,17.57,10.18,23.43,13.55,3.38,1.94,5.86,3.38,7.1,4.07l7.5,7.5,4.72,4.77.05-6.55.1-11.72v-2.48l.05-3.92v-2.38c2.38-1.59,5.71-3.82,9.03-6.06.1-.05.25-.15.35-.25l-.1,10.52-.2,18.52-.05,3.23,2.28,2.28c.65.65.74.74,17.92,10.67,3.18,1.84,6.95,4.02,11.42,6.6,8.44,4.86,17.72,10.23,22.74,13.11v32.51h83.35v97.39ZM401.3,210.47v-29.24c-.25-.15-16.23-9.38-30.78-17.82-12.26-7.1-23.48-13.55-23.53-13.6l.2-20.3.25-23.23s-6.21,4.17-12.41,8.29c-6.21,4.17-12.41,8.29-12.41,8.29v6.45c-.05,2.33-.05,4.62-.05,5.71v.65s-.3-.15-.84-.45c-3.43-1.99-16.98-9.83-30.58-17.72-15.74-9.08-31.57-18.22-31.97-18.47l-59.42,33.36-50.48,28.34-36.49,20.5v29.24H33.32v112.68h79.47v31.77l148.47,31.47,140.04-31.47v-31.77h83.35v-112.68h-83.35ZM477.01,315.51h-83.35v33.26l-132.44,29.78-140.78-29.83v-33.21H40.96v-97.39h79.47v-32.42l40.16-22.54,50.48-28.34,48.05-27c5.61,3.28,16.88,9.78,28.2,16.33,9.08,5.26,17.57,10.18,23.43,13.55,3.38,1.94,5.86,3.38,7.1,4.07l7.5,7.5,4.72,4.77.05-6.55.1-11.72v-2.48l.05-3.92v-2.38c2.38-1.59,5.71-3.82,9.03-6.06.1-.05.25-.15.35-.25l-.1,10.52-.2,18.52-.05,3.23,2.28,2.28c.65.65.74.74,17.92,10.67,3.18,1.84,6.95,4.02,11.42,6.6,8.44,4.86,17.72,10.23,22.74,13.11v32.51h83.35v97.39ZM401.3,210.47v-29.24c-.25-.15-16.23-9.38-30.78-17.82-12.26-7.1-23.48-13.55-23.53-13.6l.2-20.3.25-23.23s-6.21,4.17-12.41,8.29c-6.21,4.17-12.41,8.29-12.41,8.29v6.45c-.05,2.33-.05,4.62-.05,5.71v.65s-.3-.15-.84-.45c-3.43-1.99-16.98-9.83-30.58-17.72-15.74-9.08-31.57-18.22-31.97-18.47l-59.42,33.36-50.48,28.34-36.49,20.5v29.24H33.32v112.68h79.47v31.77l148.47,31.47,140.04-31.47v-31.77h83.35v-112.68h-83.35ZM477.01,315.51h-83.35v33.26l-132.44,29.78-140.78-29.83v-33.21H40.96v-97.39h79.47v-32.42l40.16-22.54,50.48-28.34,48.05-27c5.61,3.28,16.88,9.78,28.2,16.33,9.08,5.26,17.57,10.18,23.43,13.55,3.38,1.94,5.86,3.38,7.1,4.07l7.5,7.5,4.72,4.77.05-6.55.1-11.72v-2.48l.05-3.92v-2.38c2.38-1.59,5.71-3.82,9.03-6.06.1-.05.25-.15.35-.25l-.1,10.52-.2,18.52-.05,3.23,2.28,2.28c.65.65.74.74,17.92,10.67,3.18,1.84,6.95,4.02,11.42,6.6,8.44,4.86,17.72,10.23,22.74,13.11v32.51h83.35v97.39ZM487.83,192.89h-69v-13.65l-.94-1.74-4.77-8.49-1.09-1.94-1.89-1.04c-.15-.05-.84-.45-3.18-1.79-2.13-1.24-5.56-3.23-11.22-6.5-3.52-2.04-7.84-4.57-13.25-7.69-4.52-2.58-9.23-5.31-13.4-7.74l-4.47-2.58c.05-3.52.1-7.6.15-11.47l.05-2.73.15-12.26.05-4.91c.05-3.18.1-12.81-9.68-17.72l-.79-.45-.89-.2-4.47-1.04-.84-.2h-.89c-5.26,0-7.5,1.49-13.5,5.46l-.1.05-8.54,5.71-12.41,8.29-1.24.84-11.72-6.75-15.74-9.13c-10.92-6.25-15.44-8.89-16.08-9.28l-1.84-1.14h-2.18l-9.78-.05h-1.99l-1.79.99-76.79,43.14-50.48,28.34-19.06,10.72-1.84.99-1.04,1.79-5.01,8.64-1.04,1.79v13.75H30.14l-2.23,2.23-12.16,12.16v119.04l12.16,12.16,2.23,2.23h65.13v16.88l1.69,2.13,7.84,9.68,1.69,2.09,2.68.55,148.47,31.47.79.2h.84l4.22-.05h.84l.79-.15,139.99-31.47,2.63-.6,1.69-2.09,7.74-9.68,1.64-2.09v-16.88h69l2.23-2.28,9.93-9.88,2.23-2.23v-119.04l-14.4-14.4ZM494.58,323.15l-9.93,9.93h-73.47v21.84l-7.69,9.68-140.04,31.42-4.22.05-148.47-31.47-7.84-9.68v-21.84H33.32l-9.93-9.93v-112.68l9.93-9.93h69.6v-19.31l5.01-8.64,26.66-14.94,50.48-28.39,69.25-38.87,9.73.05c.3.15,7.2,4.12,16.33,9.43l15.74,9.08,18.37,10.62,2.63-4.96,12.41-8.29,8.54-5.71c5.66-3.72,6.4-4.22,9.38-4.22l4.47,1.04c5.56,2.78,5.51,7.99,5.46,10.82l-.05,4.96-.2,14.05v.89c-.05,5.61-.15,11.72-.2,15.93,5.26,3.03,13.85,8.04,21.74,12.56,2.18,1.29,4.22,2.48,6.11,3.52,19.11,11.07,21.44,12.41,21.69,12.56l4.72,8.49v19.31h73.47l9.93,9.93v112.68ZM401.3,210.47v-29.24c-.25-.15-16.23-9.38-30.78-17.82-12.26-7.1-23.48-13.55-23.53-13.6l.2-20.3.25-23.23s-6.21,4.17-12.41,8.29c-6.21,4.17-12.41,8.29-12.41,8.29v6.45c-.05,2.33-.05,4.62-.05,5.71v.65s-.3-.15-.84-.45c-3.43-1.99-16.98-9.83-30.58-17.72-15.74-9.08-31.57-18.22-31.97-18.47l-59.42,33.36-50.48,28.34-36.49,20.5v29.24H33.32v112.68h79.47v31.77l148.47,31.47,140.04-31.47v-31.77h83.35v-112.68h-83.35ZM477.01,218.11v97.39h-83.35v33.26l-132.44,29.78-140.78-29.83v-33.21H40.96v-97.39h79.47v-32.42l40.16-22.54,50.48-28.34,48.05-27c5.61,3.28,16.88,9.78,28.2,16.33,9.08,5.26,17.57,10.18,23.43,13.55,3.38,1.94,5.86,3.38,7.1,4.07l7.5,7.5,4.72,4.77.05-6.55.1-11.72v-2.48l.05-3.92v-2.38c2.38-1.59,5.71-3.82,9.03-6.06.1-.05.25-.15.35-.25l-.1,10.52-.2,18.52-.05,3.23,2.28,2.28c.65.65.74.74,17.92,10.67,3.18,1.84,6.95,4.02,11.42,6.6,8.44,4.86,17.72,10.23,22.74,13.11v32.51h83.35ZM401.3,210.47v-29.24c-.25-.15-16.23-9.38-30.78-17.82-12.26-7.1-23.48-13.55-23.53-13.6l.2-20.3.25-23.23s-6.21,4.17-12.41,8.29c-6.21,4.17-12.41,8.29-12.41,8.29v6.45c-.05,2.33-.05,4.62-.05,5.71v.65s-.3-.15-.84-.45c-3.43-1.99-16.98-9.83-30.58-17.72-15.74-9.08-31.57-18.22-31.97-18.47l-59.42,33.36-50.48,28.34-36.49,20.5v29.24H33.32v112.68h79.47v31.77l148.47,31.47,140.04-31.47v-31.77h83.35v-112.68h-83.35ZM477.01,315.51h-83.35v33.26l-132.44,29.78-140.78-29.83v-33.21H40.96v-97.39h79.47v-32.42l40.16-22.54,50.48-28.34,48.05-27c5.61,3.28,16.88,9.78,28.2,16.33,9.08,5.26,17.57,10.18,23.43,13.55,3.38,1.94,5.86,3.38,7.1,4.07l7.5,7.5,4.72,4.77.05-6.55.1-11.72v-2.48l.05-3.92v-2.38c2.38-1.59,5.71-3.82,9.03-6.06.1-.05.25-.15.35-.25l-.1,10.52-.2,18.52-.05,3.23,2.28,2.28c.65.65.74.74,17.92,10.67,3.18,1.84,6.95,4.02,11.42,6.6,8.44,4.86,17.72,10.23,22.74,13.11v32.51h83.35v97.39ZM401.3,210.47v-29.24c-.25-.15-16.23-9.38-30.78-17.82-12.26-7.1-23.48-13.55-23.53-13.6l.2-20.3.25-23.23s-6.21,4.17-12.41,8.29c-6.21,4.17-12.41,8.29-12.41,8.29v6.45c-.05,2.33-.05,4.62-.05,5.71v.65s-.3-.15-.84-.45c-3.43-1.99-16.98-9.83-30.58-17.72-15.74-9.08-31.57-18.22-31.97-18.47l-59.42,33.36-50.48,28.34-36.49,20.5v29.24H33.32v112.68h79.47v31.77l148.47,31.47,140.04-31.47v-31.77h83.35v-112.68h-83.35ZM477.01,315.51h-83.35v33.26l-132.44,29.78-140.78-29.83v-33.21H40.96v-97.39h79.47v-32.42l40.16-22.54,50.48-28.34,48.05-27c5.61,3.28,16.88,9.78,28.2,16.33,9.08,5.26,17.57,10.18,23.43,13.55,3.38,1.94,5.86,3.38,7.1,4.07l7.5,7.5,4.72,4.77.05-6.55.1-11.72v-2.48l.05-3.92v-2.38c2.38-1.59,5.71-3.82,9.03-6.06.1-.05.25-.15.35-.25l-.1,10.52-.2,18.52-.05,3.23,2.28,2.28c.65.65.74.74,17.92,10.67,3.18,1.84,6.95,4.02,11.42,6.6,8.44,4.86,17.72,10.23,22.74,13.11v32.51h83.35v97.39ZM322.57,135.01v.65s-.3-.15-.84-.45l-10.97,2.48c3.38,1.94,5.86,3.38,7.1,4.07l7.5,7.5,4.72,4.77.05-6.55.1-11.72v-2.48l-7.64,1.74Z" fill="#fff"/>
    </g>
    <path d="M401.3,210.47v-29.24c-.25-.15-16.23-9.38-30.78-17.82-12.26-7.1-23.48-13.55-23.53-13.6l.2-20.3.25-23.23s-6.21,4.17-12.41,8.29c-6.21,4.17-12.41,8.29-12.41,8.29v6.45c-.05,2.33-.05,4.62-.05,5.71v.65s-.3-.15-.84-.45c-3.43-1.99-16.98-9.83-30.58-17.72-15.74-9.08-31.57-18.22-31.97-18.47l-59.42,33.36-50.48,28.34-36.49,20.5v29.24H33.32v112.68h79.47v31.77l148.47,31.47,140.04-31.47v-31.77h83.35v-112.68h-83.35ZM393.66,316.9l-6.25,6.25v20.65l-126.19,28.39-134.53-28.54v-20.5l-6.25-6.25-1.44-1.39-6.21-6.21H47.17v-84.98h65.62l6.21-6.21,1.44-1.39,6.11-6.11.15-.15v-21.15l43.14-24.22,50.48-28.34,38.77-21.74c10.18,5.86,29.49,17.03,42.69,24.67,8.04,4.67,13.8,7.99,13.85,7.99l6.95,1.89c.5,0,1.54-.05,2.78-.3,1.39-.25,3.13-.79,4.77-1.79,1.04-.7,2.08-1.59,3.03-2.73,0,9.43.6,13.4,6.9,17.08.1.05,4.37,2.48,10.52,6.06,10.18,5.91,25.47,14.74,35.05,20.25l1.79,1.09v21.25l3.28,3.28,2.98,2.98,1.44,1.39,6.21,6.21h69.5v84.98h-69.5l-6.21,6.21-1.44,1.39Z" fill="#26a9e1"/>
    <path d="M259.08,115.01l-38.77,21.74,14.64,3.13,24.03-13.5c6.35,3.67,17.97,10.37,28.59,16.53l14.2-3.23c-13.2-7.64-32.51-18.81-42.69-24.67ZM259.08,115.01l-38.77,21.74,14.64,3.13,24.03-13.5c6.35,3.67,17.97,10.37,28.59,16.53l14.2-3.23c-13.2-7.64-32.51-18.81-42.69-24.67ZM401.3,224.32l-6.21-6.21-1.44-1.39-2.98-2.98-3.28-3.28v-21.25l-1.79-1.09c-9.58-5.51-24.87-14.35-35.05-20.25-6.16-3.57-10.42-6.01-10.52-6.06-6.3-3.67-6.9-7.64-6.9-17.08-.94,1.14-1.99,2.04-3.03,2.73-1.64.99-3.38,1.54-4.77,1.79-1.24.25-2.28.3-2.78.3l-6.95-1.89s-5.81-3.33-13.85-7.99c-13.2-7.64-32.51-18.81-42.69-24.67l-38.77,21.74-50.48,28.34-43.14,24.22v21.15l-.15.15-6.11,6.11-1.44,1.39-6.21,6.21H47.17v84.98h65.62l6.21,6.21,1.44,1.39,6.25,6.25v20.5l134.53,28.54,126.19-28.39v-20.65l6.25-6.25,1.44-1.39,6.21-6.21h69.5v-84.98h-69.5ZM460.87,299.37h-59.57l-7,2.93-13.9,13.85-2.88,7v12.71l-116.41,26.16-124.55-26.41v-12.46l-2.93-7-13.85-13.85-7-2.93h-55.7v-65.13h55.7l7-2.93,13.85-13.85,2.04-4.91.89-2.08v-15.34l47.9-26.91,50.48-28.34,24.03-13.5c6.35,3.67,17.97,10.37,28.59,16.53,12.31,7.1,23.33,13.5,23.63,13.65l1.84.7,6.95,1.89,2.58.3c.55,0,1.44,0,2.53-.15,1.54,4.07,4.52,7.94,9.98,11.12.2.1.55.3,1.24.7,1.74.99,5.71,3.28,14.89,8.64,8.44,4.86,18.62,10.72,26.31,15.19v15.54l2.33,5.66.55,1.34,13.9,13.85,7,2.93h59.57v65.13ZM259.08,115.01l-38.77,21.74,14.64,3.13,24.03-13.5c6.35,3.67,17.97,10.37,28.59,16.53l14.2-3.23c-13.2-7.64-32.51-18.81-42.69-24.67Z" fill="#132146"/>
  </g>
  <g>
    <g>
      <path d="M266.98,261.55h-38.17v13.15h18.96c-.05.2-.05.45-.15.65-1.24,7.25-5.01,13.15-11.32,17.62-6.55,4.67-14,7-22.34,7-10.67,0-19.76-3.67-27.35-11.02-7.35-7.15-11.12-16.78-11.27-28.89-.05-.3-.05-.6-.05-.89,0-10.92,3.28-20.25,9.93-28,2.23-2.63,4.77-4.82,7.59-6.5,5.46-3.43,11.96-5.11,19.56-5.11,8.24,0,15.59,2.28,21.99,6.75,4.02,2.83,7.3,5.96,9.78,9.28,1.49,1.99,2.68,4.02,3.62,6.16h13.3v-34.45h-13.3v11.67c-9.93-8.89-22.19-13.35-36.83-13.35-15.98,0-28.74,4.96-38.17,14.84-.2.15-.35.35-.5.5-8.94,9.53-13.6,21.35-14.2,35.44-.05.99-.05,1.99-.05,2.98,0,14.74,4.62,27.5,13.95,38.27,9.28,10.82,23.43,16.18,42.34,16.18,15.89,0,28.59-4.42,38.27-13.25,6.55-6.01,10.92-13.45,13.01-22.24.94-4.07,1.44-8.44,1.44-13.15,0-1.04,0-2.23-.05-3.62Z" fill="#132146"/>
      <path d="M233.47,272.37l11.02,2.33h3.28c-.05.2-.05.45-.15.65l2.28.5c.05-.25.1-.55.15-.79l.4-2.68h-16.98ZM269.31,261.5l-.1-2.23h-42.74v17.77h18.47c-1.44,5.71-4.77,10.33-10.03,14.05-6.11,4.37-13.15,6.55-20.95,6.55-10.13,0-18.57-3.38-25.71-10.38-6.8-6.6-10.38-15.54-10.62-26.76-.05-.45-.05-.89-.05-1.34,0-10.28,3.18-19.21,9.43-26.46,2.68-3.13,5.71-5.56,9.23-7.3,4.57-2.38,9.93-3.52,16.13-3.52,7.69,0,14.64,2.13,20.65,6.35,2.88,2.04,5.41,4.22,7.45,6.55,2.23,2.48,3.97,5.11,5.16,7.89l.6,1.39h17.18v-39.12h-17.97v9.08c-9.63-7.15-21.2-10.77-34.5-10.77-16.88,0-30.48,5.41-40.41,16.08-.15.15-.3.35-.45.5-8.84,9.73-13.65,21.84-14.3,36.04-.05,1.14-.1,2.28-.1,3.47,0,15.24,4.86,28.64,14.49,39.81,9.73,11.27,24.57,16.98,44.13,16.98,16.38,0,29.78-4.67,39.81-13.9,7.05-6.45,11.72-14.49,13.85-23.98.94-4.07,1.39-8.44,1.39-13.11,0-1.04,0-2.28-.05-3.67ZM263.2,278.32c-2.04,8.09-6.16,14.94-12.21,20.5-9.13,8.44-21.49,12.66-36.68,12.66-18.12,0-31.82-5.16-40.61-15.34-8.89-10.33-13.4-22.69-13.4-36.78,0-.84,0-1.64.05-2.48.5-13.65,5.06-25.22,13.6-34.4.5-.5.99-1.04,1.49-1.49,8.84-8.64,20.8-13.06,35.49-13.06s25.81,4.27,35.24,12.76l3.87,3.47v-14.59h8.74v29.83h-9.58c-.5-1.09-1.09-2.13-1.79-3.13-2.73-4.37-6.7-8.34-11.72-11.86-6.8-4.77-14.64-7.2-23.33-7.2s-16.53,2.28-22.74,6.8c-2.23,1.59-4.32,3.47-6.21,5.66-6.95,8.14-10.47,18.07-10.47,29.49v.4c.1,12.91,4.12,23.38,12.06,31.08,7.94,7.74,17.72,11.67,28.94,11.67,8.79,0,16.78-2.53,23.68-7.45,6.8-4.86,10.92-11.22,12.26-19.01.05-.25.1-.55.15-.79l.4-2.68h-19.31v-8.49h33.56c.05.45.05.89.05,1.29,0,4.67-.5,9.08-1.54,13.15ZM233.47,272.37l11.02,2.33h3.28c-.05.2-.05.45-.15.65l2.28.5c.05-.25.1-.55.15-.79l.4-2.68h-16.98ZM233.47,272.37l11.02,2.33h3.28c-.05.2-.05.45-.15.65l2.28.5c.05-.25.1-.55.15-.79l.4-2.68h-16.98Z" fill="#132146"/>
    </g>
    <g>
      <path d="M341.59,266.06c-.4-.65-.84-1.29-1.24-1.89-2.78-3.87-5.91-6.75-9.53-8.54-4.17-2.08-10.87-4.32-20.15-6.75-7.1-1.79-11.81-3.23-14.25-4.22-2.43-.99-4.42-2.58-5.96-4.72-.74-1.04-1.29-2.13-1.69-3.33-.45-1.24-.65-2.63-.65-4.07,0-3.67,1.54-6.85,4.62-9.48,3.03-2.63,7.45-3.97,13.15-3.97,8.24,0,14.89,3.08,20,9.18.84.94,1.59,1.94,2.28,2.98v7.3h12.81v-31.82h-12.81v7c-7.2-5.41-14.99-8.14-23.38-8.14-8.89,0-16.23,2.63-22.09,7.89-5.86,5.26-8.79,12.26-8.79,21.1,0,1.84.15,3.57.45,5.26.55,3.52,1.79,6.65,3.62,9.48,2.68,4.12,6.25,7.3,10.82,9.53,4.52,2.28,11.47,4.62,20.85,7.15,3.67.99,6.8,1.99,9.38,2.98,3.18,1.14,5.56,2.33,7.15,3.52,2.93,2.23,4.37,5.81,4.37,10.77s-1.79,9.28-5.36,12.46c-3.57,3.13-7.94,4.72-13.1,4.72-10.18,0-18.37-5.71-24.67-17.13v-9.23h-13.11v38.07h13.11v-8.69c7.64,6.9,16.23,10.33,25.81,10.33s17.08-2.88,23.43-8.74c6.3-5.81,9.43-13.2,9.43-22.19,0-6.3-1.49-11.91-4.52-16.83Z" fill="#132146"/>
      <path d="M343.57,264.87c-.25-.45-.55-.84-.79-1.24-3.08-4.62-6.75-7.99-10.92-10.08-4.37-2.18-11.12-4.47-20.6-6.9-6.95-1.79-11.67-3.18-13.95-4.12-2.04-.84-3.67-2.13-4.96-3.92-.55-.79-.99-1.59-1.29-2.48-.4-1.09-.6-2.28-.6-3.57,0-3.03,1.24-5.51,3.77-7.74,2.63-2.23,6.55-3.38,11.67-3.38,7.15,0,12.91,2.43,17.42,7.4.89.94,1.74,1.99,2.53,3.13v8.94h17.47v-36.49h-17.47v4.91c-6.55-4.02-13.6-6.06-21.05-6.06-9.43,0-17.37,2.88-23.63,8.49-6.35,5.71-9.58,13.35-9.58,22.83,0,1.99.15,3.92.5,5.76.65,3.77,1.94,7.2,3.92,10.23,2.93,4.47,6.85,7.99,11.76,10.42,4.62,2.28,11.81,4.72,21.3,7.25,2.13.55,4.02,1.14,5.76,1.69,4.72,1.54,8.04,3.03,9.98,4.47,2.33,1.74,3.43,4.67,3.43,8.89,0,4.47-1.49,7.99-4.57,10.72-3.13,2.78-6.95,4.17-11.57,4.17-9.18,0-16.48-5.06-22.34-15.44v-10.97h-17.77v42.74h17.77v-6.11c7.1,5.16,14.94,7.74,23.48,7.74,9.83,0,18.27-3.13,24.97-9.38,6.8-6.25,10.23-14.3,10.23-23.88,0-6.75-1.64-12.81-4.86-18.02ZM313.24,311.48c-8.94,0-17.08-3.28-24.22-9.73l-3.92-3.47v11.57h-8.44v-33.46h8.44v7.6l.3.5c6.7,12.16,15.69,18.32,26.71,18.32,5.76,0,10.67-1.79,14.64-5.31,4.12-3.62,6.16-8.39,6.16-14.2s-1.79-9.98-5.31-12.61c-1.19-.89-2.68-1.74-4.57-2.58-3.23-1.49-7.45-2.93-12.76-4.32-9.18-2.48-16.08-4.82-20.45-7-4.12-2.04-7.45-4.96-9.88-8.74-1.64-2.53-2.78-5.46-3.28-8.69-.25-1.54-.4-3.13-.4-4.77,0-8.19,2.63-14.54,7.99-19.36,5.41-4.86,12.31-7.3,20.55-7.3s15.24,2.58,21.94,7.69l3.72,2.78v-9.33h8.19v27.15h-8.19v-5.66l-.35-.6c-.55-.79-1.09-1.59-1.69-2.28-5.61-7.25-13.2-10.92-22.54-10.92-6.25,0-11.22,1.54-14.69,4.52-3.57,3.13-5.41,6.9-5.41,11.27,0,1.59.25,3.13.7,4.57.45,1.54,1.14,2.93,2.08,4.22,1.79,2.48,4.17,4.32,6.95,5.46,2.53,1.09,7.3,2.48,14.54,4.32,9.08,2.38,15.69,4.57,19.71,6.6,2.98,1.49,5.71,3.87,8.09,7,.6.79,1.19,1.69,1.74,2.58,2.78,4.47,4.17,9.73,4.17,15.59,0,8.34-2.83,15.04-8.69,20.5-5.96,5.46-13.06,8.09-21.84,8.09Z" fill="#132146"/>
    </g>
  </g>
</svg>