<?xml version="1.0" encoding="UTF-8"?>
<svg id="Layer_1" xmlns="http://www.w3.org/2000/svg" baseProfile="tiny" version="1.2" viewBox="0 0 144 144">
  <!-- Generator: Adobe Illustrator 30.1.0, SVG Export Plug-In . SVG Version: 2.1.1 Build 136)  -->
  <g>
    <g>
      <path d="M137.95,55.81h-21.49v-5.65l-1.38-2.48c-.07-.04-.75-.43-6.34-3.67-.55-.31-1.15-.65-1.79-1.03-2.3-1.32-4.82-2.79-6.35-3.68.01-1.23.04-3.02.05-4.66v-.26l.06-4.11.02-1.45c.01-.82.03-2.35-1.6-3.16l-1.31-.31c-.87,0-1.09.15-2.74,1.24l-2.5,1.67-3.63,2.42-.77,1.45-5.37-3.1-4.6-2.66c-1.33-.77-2.51-1.45-3.36-1.95-.21-.12-.4-.23-.57-.33-.09-.05-.17-.1-.24-.14-.36-.21-.58-.33-.61-.34h-2.84l-20.25,11.35-14.77,8.31-7.8,4.37-1.46,2.52v5.65H5.95l-2.9,2.9v32.96l2.9,2.9h20.36v6.39l2.29,2.83,43.42,9.21,1.24-.02,40.95-9.19,2.25-2.83v-6.39h21.49l2.9-2.9v-32.96l-2.9-2.9ZM137.95,91.67h-24.38v9.29l-40.95,9.21-43.42-9.21v-9.29H5.95v-32.96h23.25v-8.55l10.67-5.99,14.76-8.29,17.38-9.76c.12.08,4.75,2.75,9.35,5.4,3.98,2.31,7.94,4.61,8.94,5.19.16.08.25.13.25.13v-.19c0-.32,0-.99.01-1.67v-1.89s1.82-1.2,3.63-2.42c1.82-1.21,3.63-2.43,3.63-2.43l-.07,6.8-.06,5.93s3.3,1.91,6.88,3.98c4.26,2.47,8.93,5.17,9,5.21v8.55h24.38v32.96Z" fill="#fff"/>
      <path d="M31.01,60.95h.42v-.41l-.42.41ZM31.01,89.43l.42.41v-.41h-.42ZM111.34,89.43v.41l.42-.41h-.42ZM111.34,60.54v.41h.42l-.42-.41ZM31.01,60.95h.42v-.41l-.42.41ZM31.01,89.43l.42.41v-.41h-.42ZM111.34,89.43v.41l.42-.41h-.42ZM111.34,60.54v.41h.42l-.42-.41ZM31.01,60.95h.42v-.41l-.42.41ZM31.01,89.43l.42.41v-.41h-.42ZM111.34,89.43v.41l.42-.41h-.42ZM111.34,60.54v.41h.42l-.42-.41ZM31.01,60.95h.42v-.41l-.42.41ZM31.01,89.43l.42.41v-.41h-.42ZM111.34,89.43v.41l.42-.41h-.42ZM111.34,60.54v.41h.42l-.42-.41ZM31.01,60.95h.42v-.41l-.42.41ZM31.01,89.43l.42.41v-.41h-.42ZM111.34,89.43v.41l.42-.41h-.42ZM111.34,60.54v.41h.42l-.42-.41ZM31.01,60.95h.42v-.41l-.42.41ZM31.01,89.43l.42.41v-.41h-.42ZM111.34,89.43v.41l.42-.41h-.42ZM111.34,60.54v.41h.42l-.42-.41ZM31.01,60.95h.42v-.41l-.42.41ZM31.01,89.43l.42.41v-.41h-.42ZM111.34,89.43v.41l.42-.41h-.42ZM111.34,60.54v.41h.42l-.42-.41ZM111.34,60.54v.41h.42l-.42-.41ZM111.34,89.43v.41l.42-.41h-.42ZM31.01,89.43l.42.41v-.41h-.42ZM31.01,60.95h.42v-.41l-.42.41ZM31.01,60.95h.42v-.41l-.42.41ZM31.01,89.43l.42.41v-.41h-.42ZM111.34,89.43v.41l.42-.41h-.42ZM111.34,60.54v.41h.42l-.42-.41ZM111.34,60.54v.41h.42l-.42-.41ZM111.34,89.43v.41l.42-.41h-.42ZM31.01,89.43l.42.41v-.41h-.42ZM31.01,60.95h.42v-.41l-.42.41ZM31.01,60.95h.42v-.41l-.42.41ZM31.01,89.43l.42.41v-.41h-.42ZM111.34,89.43v.41l.42-.41h-.42ZM111.34,60.54v.41h.42l-.42-.41ZM111.34,60.54v.41h.42l-.42-.41ZM111.34,89.43v.41l.42-.41h-.42ZM31.01,89.43l.42.41v-.41h-.42ZM31.01,60.95h.42v-.41l-.42.41ZM31.01,60.95h.42v-.41l-.42.41ZM31.01,89.43l.42.41v-.41h-.42ZM111.34,89.43v.41l.42-.41h-.42ZM111.34,60.54v.41h.42l-.42-.41ZM111.34,60.54v.41h.42l-.42-.41ZM111.34,89.84l.42-.41h-.42v.41ZM31.43,89.84v-.41h-.42l.42.41ZM31.43,60.95v-.41l-.42.41h.42ZM111.34,60.54v.41h.42l-.42-.41ZM111.34,89.84l.42-.41h-.42v.41ZM31.43,89.84v-.41h-.42l.42.41ZM31.43,60.95v-.41l-.42.41h.42ZM31.01,60.95h.42v-.41l-.42.41ZM31.01,89.43l.42.41v-.41h-.42ZM111.34,89.43v.41l.42-.41h-.42ZM111.34,60.54v.41h.42l-.42-.41ZM111.34,60.54v.41h.42l-.42-.41ZM111.34,89.43v.41l.42-.41h-.42ZM31.01,89.43l.42.41v-.41h-.42ZM31.01,60.95h.42v-.41l-.42.41ZM31.01,60.95h.42v-.41l-.42.41ZM31.01,89.43l.42.41v-.41h-.42ZM111.34,89.43v.41l.42-.41h-.42ZM111.34,60.54v.41h.42l-.42-.41ZM111.34,60.54v.41h.42l-.42-.41ZM111.34,89.43v.41l.42-.41h-.42ZM31.01,89.43l.42.41v-.41h-.42ZM31.01,60.95h.42v-.41l-.42.41ZM31.01,60.95h.42v-.41l-.42.41ZM31.01,89.43l.42.41v-.41h-.42ZM111.34,89.43v.41l.42-.41h-.42ZM111.34,60.54v.41h.42l-.42-.41ZM111.34,60.54v.41h.42l-.42-.41ZM111.34,89.43v.41l.42-.41h-.42ZM31.01,89.43l.42.41v-.41h-.42ZM31.01,60.95h.42v-.41l-.42.41ZM31.01,60.95h.42v-.41l-.42.41ZM31.01,89.43l.42.41v-.41h-.42ZM111.34,89.43v.41l.42-.41h-.42ZM111.34,60.54v.41h.42l-.42-.41ZM31.01,60.95h.42v-.41l-.42.41ZM31.01,89.43l.42.41v-.41h-.42ZM111.34,89.43v.41l.42-.41h-.42ZM111.34,60.54v.41h.42l-.42-.41ZM31.01,60.95h.42v-.41l-.42.41ZM31.01,89.43l.42.41v-.41h-.42ZM111.34,89.43v.41l.42-.41h-.42ZM111.34,60.54v.41h.42l-.42-.41ZM31.01,60.95h.42v-.41l-.42.41ZM31.01,89.43l.42.41v-.41h-.42ZM111.34,89.43v.41l.42-.41h-.42ZM111.34,60.54v.41h.42l-.42-.41Z" fill="#fff"/>
    </g>
    <path d="M113.57,58.71v-8.55c-.07-.04-4.74-2.74-9-5.21-3.58-2.07-6.86-3.96-6.88-3.98l.06-5.93.07-6.8s-1.81,1.22-3.63,2.43c-1.81,1.22-3.63,2.42-3.63,2.42v1.89c-.01.68-.01,1.35-.01,1.67v.19s-.09-.05-.25-.13c-1-.58-4.96-2.88-8.94-5.19-4.6-2.65-9.23-5.32-9.35-5.4l-17.38,9.76-14.76,8.29-10.67,5.99v8.55H5.95v32.96h23.25v9.29l43.42,9.21,40.95-9.21v-9.29h24.38v-32.96h-24.38ZM133.9,87.62h-20.33l-1.81,1.81-.42.41-1.83,1.83v6.04l-36.9,8.3-39.35-8.34v-6l-1.83-1.83-.42-.41-1.81-1.81H10.01v-24.85h19.19l1.81-1.82.42-.41,1.79-1.78.04-.05v-6.18l12.62-7.08,14.76-8.29,11.34-6.36c2.98,1.71,8.62,4.98,12.49,7.21,2.35,1.37,4.03,2.34,4.05,2.34l2.03.55c.14,0,.45,0,.81-.09.41-.07.92-.23,1.4-.52.3-.2.61-.46.88-.8,0,2.76.18,3.92,2.02,5,.03,0,1.28.72,3.08,1.77,2.97,1.73,7.45,4.31,10.25,5.92l.52.32v6.21l.96.96.87.87.42.41,1.81,1.82h20.33v24.85h0Z" fill="#50c8ec"/>
    <path d="M31.01,60.95h.42v-.41l-.42.41ZM31.01,89.43l.42.41v-.41h-.42ZM111.34,89.43v.41l.42-.41h-.42ZM111.34,60.54v.41h.42l-.42-.41Z" fill="#132146"/>
    <path d="M113.57,62.77l-1.81-1.82h-.42v-.41l-.87-.87-.96-.96v-6.21l-.52-.32c-2.8-1.61-7.28-4.19-10.25-5.92-1.8-1.05-3.05-1.76-3.08-1.77-1.84-1.08-2.02-2.24-2.02-5-.27.34-.58.6-.88.8-.48.29-.99.45-1.4.52-.36.08-.67.09-.81.09l-2.03-.55s-1.7-.97-4.05-2.34c-3.87-2.23-9.51-5.5-12.49-7.21l-11.34,6.36-14.76,8.29-12.62,7.08v6.18l-.04.05-1.79,1.78v.41h-.42l-1.81,1.82H10.01v24.85h19.19l1.81,1.81h.42v.41l1.83,1.83v6l39.35,8.34,36.9-8.3v-6.04l1.83-1.83v-.41h.42l1.81-1.81h20.33v-24.85s-20.33,0-20.33,0ZM131,84.72h-17.43l-2.04.85-4.07,4.05-.84,2.05v3.72l-34.04,7.65-36.43-7.73v-3.64l-.86-2.05-4.05-4.05-2.04-.85H12.91v-19.05h16.29l2.04-.86,4.05-4.05.6-1.44.26-.61v-4.48l14.01-7.87,14.77-8.29,7.02-3.95c1.86,1.08,5.26,3.04,8.36,4.84,3.61,2.07,6.83,3.95,6.92,3.99l.53.2,2.03.55.76.09c.16,0,.42,0,.74-.04.45,1.19,1.32,2.32,2.92,3.25.06.03.16.09.36.2.51.29,1.67.96,4.36,2.53,2.46,1.42,5.44,3.13,7.69,4.44v4.54l.68,1.66.16.39,4.07,4.05,2.04.86h17.43v19.05Z" fill="#fff"/>
  </g>
  <g>
    <path d="M74.99,74.71c0,1.37-.13,2.65-.41,3.84-.62,2.77-1.99,5.12-4.05,7.01-2.93,2.7-6.85,4.06-11.64,4.06-5.72,0-10.06-1.67-12.91-4.96-2.82-3.27-4.24-7.19-4.24-11.65,0-.34.02-.68.03-1.01.19-4.15,1.6-7.7,4.18-10.54.04-.04.09-.1.13-.15,2.91-3.12,6.88-4.7,11.82-4.7,3.89,0,7.27,1.06,10.09,3.15v-2.66h5.25v11.44h-5.02l-.17-.4c-.35-.82-.86-1.59-1.51-2.31-.6-.68-1.34-1.32-2.18-1.92-1.76-1.23-3.79-1.86-6.04-1.86-1.81,0-3.38.34-4.72,1.03-1.03.51-1.91,1.22-2.7,2.14-1.83,2.12-2.76,4.73-2.76,7.74,0,.13,0,.26.02.39.07,3.28,1.12,5.89,3.1,7.82,2.1,2.05,4.56,3.04,7.52,3.04,2.28,0,4.35-.64,6.13-1.92,1.54-1.09,2.51-2.44,2.93-4.11h-5.4v-5.19h12.5l.03.65c.02.41.02.77.02,1.07h0Z" fill="#fff"/>
    <path d="M98.11,79.9c0,2.8-1,5.15-2.99,6.98-1.96,1.83-4.43,2.74-7.3,2.74-2.5,0-4.79-.75-6.87-2.26v1.78h-5.19v-12.5h5.19v3.21c1.72,3.04,3.85,4.52,6.54,4.52,1.35,0,2.46-.41,3.38-1.22.9-.8,1.33-1.83,1.33-3.14,0-1.23-.31-2.09-1-2.6-.56-.42-1.54-.85-2.92-1.3-.5-.16-1.05-.34-1.68-.5-2.77-.74-4.88-1.45-6.23-2.12-1.43-.71-2.58-1.74-3.44-3.04-.58-.89-.96-1.89-1.14-3-.11-.53-.15-1.1-.15-1.68,0-2.77.94-5.01,2.8-6.68,1.83-1.64,4.15-2.48,6.91-2.48,2.18,0,4.24.6,6.16,1.77v-1.44h5.11v10.67h-5.11v-2.61c-.23-.33-.48-.64-.74-.91-1.32-1.46-3.01-2.17-5.1-2.17-1.49,0-2.64.34-3.41.99-.74.65-1.1,1.38-1.1,2.27,0,.37.05.72.17,1.04.09.26.22.49.38.73.38.52.85.9,1.45,1.14.67.28,2.05.69,4.08,1.21,2.77.71,4.75,1.38,6.02,2.02,1.22.61,2.3,1.59,3.2,2.94.07.12.16.24.23.37.94,1.52,1.42,3.29,1.42,5.27h0Z" fill="#fff"/>
  </g>
</svg>