<svg xmlns="http://www.w3.org/2000/svg" viewBox="0 0 24 24" fill="currentColor">
  <path d="M20.16 12.594l-4.995 1.433c-.96.276-1.74-.8-1.176-1.63l2.905-4.308a1.072 1.072 0 011.596-.206 9.194 9.194 0 012.364 3.63 1.073 1.073 0 01-.694 1.08zm-4.674 3.263l4.572 2.298c.87.437.666 1.727-.307 1.946a9.19 9.19 0 01-4.323-.146 1.073 1.073 0 01-.678-1.463l1.124-3.127c.34-.947 1.547-.942 1.612.492zm-3.882-5.256l-4.996 1.433c-.96.276-1.74-.8-1.175-1.63l2.904-4.308a1.072 1.072 0 011.596-.206c.904.764 1.595 1.89 1.902 3.011.195.718-.23 1.432-.23 1.7zM11.166 4.18c.078-1.004 1.455-1.266 1.947-.37a9.19 9.19 0 011.37 4.166 1.073 1.073 0 01-.962 1.168l-3.303.366c-1.01.113-1.52-1.106-.764-1.814l1.712-3.516zm-2.12 7.988l-4.572 2.299c-.87.436-.666 1.726.307 1.945a9.19 9.19 0 004.324-.146 1.073 1.073 0 00.677-1.463l-1.124-3.127c-.34-.947-1.546-.942-1.612.492z"/>
</svg>
